<svg xmlns="http://www.w3.org/2000/svg" width="1024" height="1024" viewBox="0 0 1024 1024" role="img" aria-label="StayClean app icon">
  <rect x="64" y="64" width="896" height="896" rx="220" fill="#f7f2e8" />

  <g transform="translate(192 192) scale(26.6666666667)" fill="none" stroke="#925f2d" stroke-width="2" stroke-linecap="round" stroke-linejoin="round">
    <path d="m16 22-1-4" />
    <path d="M19 13.99a1 1 0 0 0 1-1V12a2 2 0 0 0-2-2h-3a1 1 0 0 1-1-1V4a2 2 0 0 0-4 0v5a1 1 0 0 1-1 1H6a2 2 0 0 0-2 2v.99a1 1 0 0 0 1 1" />
    <path d="M5 14h14l1.973 6.767A1 1 0 0 1 20 22H4a1 1 0 0 1-.973-1.233z" />
    <path d="m8 22 1-4" />
  </g>
</svg>
